<?xml version="1.0" standalone="no"?>
<!DOCTYPE svg PUBLIC "-//W3C//DTD SVG 20010904//EN"
 "http://www.w3.org/TR/2001/REC-SVG-20010904/DTD/svg10.dtd">
<svg version="1.0" xmlns="http://www.w3.org/2000/svg"
 width="500.000000pt" height="500.000000pt" viewBox="0 0 500.000000 500.000000"
 preserveAspectRatio="xMidYMid meet">
<metadata>
Created by potrace 1.14, written by Peter Selinger 2001-2017
</metadata>
<g transform="translate(0.000000,500.000000) scale(0.100000,-0.100000)"
fill="#000000" stroke="none">
<path d="M1598 2544 c-5 -4 -8 -103 -8 -221 l0 -213 40 0 40 0 0 86 0 85 52
-3 52 -3 32 -80 32 -80 41 -3 c23 -2 41 1 41 7 0 5 -16 46 -35 92 l-34 82 28
32 c35 40 45 90 29 141 -20 60 -58 76 -191 81 -62 3 -115 2 -119 -3z m213 -84
c22 -12 27 -68 7 -88 -7 -7 -40 -12 -80 -12 l-68 0 0 55 0 55 61 0 c33 0 69
-5 80 -10z"/>
<path d="M2106 2541 c-5 -8 -42 -110 -136 -378 l-19 -53 44 0 c42 0 44 1 58
43 l14 42 83 0 83 0 15 -42 c13 -42 15 -43 57 -43 l44 0 -51 143 c-27 78 -62
176 -76 217 l-27 75 -42 3 c-22 2 -44 -1 -47 -7z m73 -173 c13 -40 26 -79 28
-85 4 -10 -11 -13 -57 -13 -46 0 -61 3 -57 13 2 6 15 45 28 85 12 39 26 72 29
72 3 0 17 -33 29 -72z"/>
<path d="M2360 2539 c0 -6 34 -67 75 -136 l75 -124 0 -85 0 -84 45 0 45 0 0
89 0 90 75 124 c41 69 75 128 75 131 0 4 -21 6 -46 4 l-47 -3 -48 -85 c-27
-47 -52 -86 -56 -87 -5 -2 -19 18 -33 43 -13 26 -37 66 -52 90 -25 40 -31 44
-68 44 -23 0 -40 -5 -40 -11z"/>
<path d="M2710 2215 c0 -60 3 -75 15 -75 10 0 15 10 15 30 0 28 3 30 35 30 32
0 35 -2 35 -30 0 -16 5 -30 10 -30 6 0 10 32 10 75 0 43 -4 75 -10 75 -5 0
-10 -13 -10 -30 0 -28 -3 -30 -35 -30 -32 0 -35 2 -35 30 0 20 -5 30 -15 30
-12 0 -15 -15 -15 -75z"/>
<path d="M2897 2272 c-24 -26 -22 -87 3 -112 44 -44 120 -11 120 53 0 50 -24
77 -69 77 -24 0 -44 -7 -54 -18z m81 -14 c20 -20 15 -76 -8 -88 -37 -20 -67
10 -60 60 5 37 44 52 68 28z"/>
<path d="M3077 2283 c-12 -11 -8 -50 6 -60 6 -6 24 -13 40 -17 29 -7 37 -33
12 -43 -9 -3 -24 2 -34 11 -19 17 -41 21 -41 8 0 -18 38 -42 67 -42 62 0 74
67 15 86 -17 5 -37 15 -44 22 -18 18 19 27 48 12 30 -16 41 -8 19 14 -16 16
-75 22 -88 9z"/>
<path d="M3230 2215 c0 -43 4 -75 10 -75 6 0 10 14 10 30 0 27 3 30 29 30 49
0 79 48 49 78 -7 7 -31 12 -55 12 l-43 0 0 -75z m78 33 c3 -14 -3 -18 -27 -18
-29 0 -41 17 -24 34 13 13 48 1 51 -16z"/>
<path d="M3380 2215 c0 -60 3 -75 15 -75 12 0 15 15 15 75 0 60 -3 75 -15 75
-12 0 -15 -15 -15 -75z"/>
<path d="M3450 2280 c0 -5 9 -10 20 -10 18 0 20 -7 20 -65 0 -51 3 -65 15 -65
12 0 15 14 15 65 0 63 1 65 25 65 14 0 25 5 25 10 0 6 -27 10 -60 10 -33 0
-60 -4 -60 -10z"/>
<path d="M3618 2215 c-21 -60 -23 -75 -12 -75 8 0 17 7 20 15 4 9 19 15 35 15
17 0 32 -6 35 -15 4 -8 12 -15 19 -15 10 0 7 19 -12 75 -33 100 -49 100 -85 0z
m58 -12 c-2 -3 -11 -3 -19 -1 -11 2 -12 9 -5 28 l10 25 9 -24 c5 -13 7 -26 5
-28z"/>
<path d="M3770 2215 l0 -75 46 0 c53 0 58 23 6 28 -32 3 -32 3 -32 63 0 33 -4
59 -10 59 -6 0 -10 -32 -10 -75z"/>
<path d="M3907 2283 c-12 -11 -8 -50 6 -60 6 -6 24 -13 40 -17 29 -7 37 -33
12 -43 -9 -3 -24 2 -34 11 -19 17 -41 21 -41 8 0 -18 38 -42 67 -42 62 0 74
67 15 86 -17 5 -37 15 -44 22 -18 18 19 27 48 12 30 -16 41 -8 19 14 -16 16
-75 22 -88 9z"/>
</g>
</svg>
